Shishimvearba-Regular.ufo
<glyph name="C" format="1">
  <advance width="780"/>
  <unicode hex="0043"/>
  <outline>
    <component base="dot" yOffset="500"/>
    <component base="dot" yOffset="400"/>
    <component base="dot" yOffset="300"/>
    <component base="dot" yOffset="200"/>
    <component base="dot" yOffset="100"/>
    <component base="dot" xOffset="100"/>
    <component base="dot" xOffset="200"/>
    <component base="dot" xOffset="400"/>
    <component base="dot" xOffset="400" yOffset="100"/>
    <component base="dot" xOffset="500" yOffset="100"/>
    <component base="dot" xOffset="500" yOffset="500"/>
    <component base="dot" xOffset="400" yOffset="500"/>
    <component base="dot" xOffset="400" yOffset="600"/>
    <component base="dot" xOffset="200" yOffset="600"/>
    <component base="dot" xOffset="100" yOffset="600"/>
    <component base="dot" xOffset="100" yOffset="500"/>
    <component base="dot" xOffset="100" yOffset="400"/>
    <component base="dot" xOffset="100" yOffset="300"/>
    <component base="dot" xOffset="100" yOffset="200"/>
    <component base="dot" xOffset="100" yOffset="100"/>
    <component base="dot" xOffset="300" yOffset="600"/>
    <component base="dot" xOffset="300"/>
    <contour>
      <point x="300" y="800" type="move" name="top"/>
    </contour>
    <contour>
      <point x="200" y="0" type="move" name="bottom"/>
    </contour>
  </outline>
</glyph>
<glyph name="D" format="1">
  <advance width="780"/>
  <unicode hex="0044"/>
  <outline>
    <component base="dot" yOffset="500"/>
    <component base="dot" yOffset="400"/>
    <component base="dot" yOffset="300"/>
    <component base="dot" yOffset="200"/>
    <component base="dot" yOffset="100"/>
    <component base="dot" xOffset="100"/>
    <component base="dot" xOffset="200"/>
    <component base="dot" xOffset="300" yOffset="100"/>
    <component base="dot" xOffset="400" yOffset="100"/>
    <component base="dot" xOffset="400" yOffset="500"/>
    <component base="dot" xOffset="300" yOffset="500"/>
    <component base="dot" xOffset="300" yOffset="600"/>
    <component base="dot" xOffset="100" yOffset="600"/>
    <component base="dot" xOffset="100" yOffset="500"/>
    <component base="dot" xOffset="100" yOffset="400"/>
    <component base="dot" xOffset="100" yOffset="300"/>
    <component base="dot" xOffset="100" yOffset="200"/>
    <component base="dot" xOffset="100" yOffset="100"/>
    <component base="dot" xOffset="200" yOffset="600"/>
    <component base="dot" xOffset="300"/>
    <component base="dot" xOffset="500" yOffset="400"/>
    <component base="dot" xOffset="500" yOffset="300"/>
    <component base="dot" xOffset="500" yOffset="200"/>
    <component base="dot" yOffset="600"/>
    <component base="dot"/>
    <component base="dot" xOffset="400" yOffset="400"/>
    <component base="dot" xOffset="400" yOffset="200"/>
    <component base="dot" xOffset="400" yOffset="300"/>
    <contour>
      <point x="300" y="400" type="move" name="center"/>
    </contour>
    <contour>
      <point x="200" y="800" type="move" name="top"/>
    </contour>
  </outline>
</glyph>
<glyph name="L" format="1">
  <advance width="680"/>
  <unicode hex="004C"/>
  <outline>
    <component base="dot"/>
    <component base="dot" xOffset="100"/>
    <component base="dot" yOffset="100"/>
    <component base="dot" xOffset="100" yOffset="100"/>
    <component base="dot" yOffset="200"/>
    <component base="dot" xOffset="100" yOffset="200"/>
    <component base="dot" yOffset="300"/>
    <component base="dot" xOffset="100" yOffset="300"/>
    <component base="dot" yOffset="400"/>
    <component base="dot" xOffset="100" yOffset="400"/>
    <component base="dot" yOffset="500"/>
    <component base="dot" xOffset="100" yOffset="500"/>
    <component base="dot" yOffset="600"/>
    <component base="dot" xOffset="100" yOffset="600"/>
    <component base="dot" xOffset="200"/>
    <component base="dot" xOffset="300"/>
    <component base="dot" xOffset="400"/>
    <contour>
      <point x="400" y="700" type="move" name="top"/>
    </contour>
    <contour>
      <point x="300" y="0" type="move" name="bottom"/>
    </contour>
    <contour>
      <point x="600" y="700" type="move" name="topright"/>
    </contour>
  </outline>
</glyph>
<glyph name="W" format="1">
  <advance width="880"/>
  <unicode hex="0057"/>
  <outline>
    <component base="dot"/>
    <component base="dot" xOffset="100"/>
    <component base="dot" yOffset="100"/>
    <component base="dot" xOffset="100" yOffset="100"/>
    <component base="dot" yOffset="200"/>
    <component base="dot" xOffset="100" yOffset="200"/>
    <component base="dot" yOffset="300"/>
    <component base="dot" xOffset="100" yOffset="300"/>
    <component base="dot" yOffset="400"/>
    <component base="dot" xOffset="100" yOffset="400"/>
    <component base="dot" yOffset="500"/>
    <component base="dot" xOffset="100" yOffset="500"/>
    <component base="dot" yOffset="600"/>
    <component base="dot" xOffset="100" yOffset="600"/>
    <component base="dot" xOffset="500"/>
    <component base="dot" xOffset="600"/>
    <component base="dot" xOffset="500" yOffset="100"/>
    <component base="dot" xOffset="600" yOffset="100"/>
    <component base="dot" xOffset="500" yOffset="200"/>
    <component base="dot" xOffset="600" yOffset="200"/>
    <component base="dot" xOffset="500" yOffset="300"/>
    <component base="dot" xOffset="600" yOffset="300"/>
    <component base="dot" xOffset="500" yOffset="400"/>
    <component base="dot" xOffset="600" yOffset="400"/>
    <component base="dot" xOffset="500" yOffset="500"/>
    <component base="dot" xOffset="600" yOffset="500"/>
    <component base="dot" xOffset="500" yOffset="600"/>
    <component base="dot" xOffset="600" yOffset="600"/>
    <component base="dot" xOffset="400" yOffset="100"/>
    <component base="dot" xOffset="400" yOffset="200"/>
    <component base="dot" xOffset="300" yOffset="200"/>
    <component base="dot" xOffset="300" yOffset="300"/>
    <component base="dot" xOffset="200" yOffset="100"/>
    <component base="dot" xOffset="200" yOffset="200"/>
    <contour>
      <point x="290" y="800" type="move" name="top"/>
    </contour>
  </outline>
</glyph>
<glyph name="grave" format="1">
  <advance width="480"/>
  <unicode hex="0060"/>
  <outline>
    <component base="dot" xOffset="100" yOffset="500"/>
    <component base="dot" xOffset="200" yOffset="500"/>
    <component base="dot" yOffset="600"/>
    <component base="dot" xOffset="100" yOffset="600"/>
    <contour>
      <point x="190" y="500" type="move" name="_top"/>
    </contour>
  </outline>
</glyph>
<glyph name="a" format="1">
  <advance width="720"/>
  <unicode hex="0061"/>
  <outline>
    <component base="dot" xOffset="-60" yOffset="100"/>
    <component base="dot" xOffset="40"/>
    <component base="dot" xOffset="140"/>
    <component base="dot" xOffset="240"/>
    <component base="dot" xOffset="340"/>
    <component base="dot" xOffset="440"/>
    <component base="dot" xOffset="440" yOffset="100"/>
    <component base="dot" xOffset="340" yOffset="100"/>
    <component base="dot" xOffset="40" yOffset="200"/>
    <component base="dot" xOffset="140" yOffset="200"/>
    <component base="dot" xOffset="240" yOffset="200"/>
    <component base="dot" xOffset="340" yOffset="200"/>
    <component base="dot" xOffset="440" yOffset="200"/>
    <component base="dot" xOffset="440" yOffset="300"/>
    <component base="dot" xOffset="340" yOffset="300"/>
    <component base="dot" xOffset="340" yOffset="400"/>
    <component base="dot" xOffset="240" yOffset="400"/>
    <component base="dot" xOffset="140" yOffset="400"/>
    <component base="dot" xOffset="40" yOffset="400"/>
    <component base="dot" xOffset="40" yOffset="100"/>
    <contour>
      <point x="540" y="0" type="move" name="ogonek"/>
    </contour>
    <contour>
      <point x="240" y="600" type="move" name="top"/>
    </contour>
  </outline>
</glyph>
<glyph name="l" format="1">
  <advance width="580"/>
  <unicode hex="006C"/>
  <outline>
    <component base="dot" xOffset="100" yOffset="500"/>
    <component base="dot" xOffset="200" yOffset="500"/>
    <component base="dot" xOffset="100" yOffset="200"/>
    <component base="dot" xOffset="200" yOffset="200"/>
    <component base="dot" xOffset="100" yOffset="100"/>
    <component base="dot" xOffset="200" yOffset="100"/>
    <component base="dot" xOffset="100"/>
    <component base="dot" xOffset="200"/>
    <component base="dot"/>
    <component base="dot" xOffset="300"/>
    <component base="dot" yOffset="500"/>
    <component base="dot" xOffset="100" yOffset="300"/>
    <component base="dot" xOffset="200" yOffset="300"/>
    <component base="dot" xOffset="100" yOffset="400"/>
    <component base="dot" xOffset="200" yOffset="400"/>
    <contour>
      <point x="200" y="700" type="move" name="top"/>
    </contour>
    <contour>
      <point x="200" y="0" type="move" name="bottom"/>
    </contour>
    <contour>
      <point x="500" y="500" type="move" name="topright"/>
    </contour>
  </outline>
</glyph>
<glyph name="n" format="1">
  <advance width="780"/>
  <unicode hex="006E"/>
  <outline>
    <component base="dot"/>
    <component base="dot" xOffset="100"/>
    <component base="dot" yOffset="100"/>
    <component base="dot" xOffset="100" yOffset="100"/>
    <component base="dot" yOffset="200"/>
    <component base="dot" xOffset="100" yOffset="200"/>
    <component base="dot" yOffset="300"/>
    <component base="dot" xOffset="100" yOffset="300"/>
    <component base="dot" yOffset="400"/>
    <component base="dot" xOffset="100" yOffset="400"/>
    <component base="dot" xOffset="200" yOffset="400"/>
    <component base="dot" xOffset="300" yOffset="400"/>
    <component base="dot" xOffset="400" yOffset="400"/>
    <component base="dot" xOffset="400" yOffset="300"/>
    <component base="dot" xOffset="500" yOffset="300"/>
    <component base="dot" xOffset="400" yOffset="200"/>
    <component base="dot" xOffset="500" yOffset="200"/>
    <component base="dot" xOffset="400" yOffset="100"/>
    <component base="dot" xOffset="500" yOffset="100"/>
    <component base="dot" xOffset="400"/>
    <component base="dot" xOffset="500"/>
    <contour>
      <point x="300" y="600" type="move" name="top"/>
    </contour>
    <contour>
      <point x="300" y="0" type="move" name="bottom"/>
    </contour>
  </outline>
</glyph>
<glyph name="u" format="1">
  <advance width="780"/>
  <unicode hex="0075"/>
  <outline>
    <component base="dot" xOffset="780" yOffset="500" xScale="-1" yScale="-1"/>
    <component base="dot" xOffset="680" yOffset="500" xScale="-1" yScale="-1"/>
    <component base="dot" xOffset="780" yOffset="400" xScale="-1" yScale="-1"/>
    <component base="dot" xOffset="680" yOffset="400" xScale="-1" yScale="-1"/>
    <component base="dot" xOffset="780" yOffset="300" xScale="-1" yScale="-1"/>
    <component base="dot" xOffset="680" yOffset="300" xScale="-1" yScale="-1"/>
    <component base="dot" xOffset="780" yOffset="200" xScale="-1" yScale="-1"/>
    <component base="dot" xOffset="680" yOffset="200" xScale="-1" yScale="-1"/>
    <component base="dot" xOffset="780" yOffset="100" xScale="-1" yScale="-1"/>
    <component base="dot" xOffset="680" yOffset="100" xScale="-1" yScale="-1"/>
    <component base="dot" xOffset="580" yOffset="100" xScale="-1" yScale="-1"/>
    <component base="dot" xOffset="480" yOffset="100" xScale="-1" yScale="-1"/>
    <component base="dot" xOffset="380" yOffset="100" xScale="-1" yScale="-1"/>
    <component base="dot" xOffset="380" yOffset="200" xScale="-1" yScale="-1"/>
    <component base="dot" xOffset="280" yOffset="200" xScale="-1" yScale="-1"/>
    <component base="dot" xOffset="380" yOffset="300" xScale="-1" yScale="-1"/>
    <component base="dot" xOffset="280" yOffset="300" xScale="-1" yScale="-1"/>
    <component base="dot" xOffset="380" yOffset="400" xScale="-1" yScale="-1"/>
    <component base="dot" xOffset="280" yOffset="400" xScale="-1" yScale="-1"/>
    <component base="dot" xOffset="380" yOffset="500" xScale="-1" yScale="-1"/>
    <component base="dot" xOffset="280" yOffset="500" xScale="-1" yScale="-1"/>
    <contour>
      <point x="780" y="0" type="move" name="ogonek"/>
    </contour>
    <contour>
      <point x="480" y="600" type="move" name="top"/>
    </contour>
  </outline>
</glyph>
<glyph name="dieresis" format="1">
  <advance width="580"/>
  <unicode hex="00A8"/>
  <outline>
    <component base="dot" yOffset="700"/>
    <component base="dot" xOffset="300" yOffset="700"/>
    <contour>
      <point x="190" y="700" type="move" name="_top"/>
    </contour>
  </outline>
</glyph>
<glyph name="acute" format="1">
  <advance width="480"/>
  <unicode hex="00B4"/>
  <outline>
    <component base="dot" yOffset="500"/>
    <component base="dot" xOffset="100" yOffset="500"/>
    <component base="dot" xOffset="100" yOffset="600"/>
    <component base="dot" xOffset="200" yOffset="600"/>
    <contour>
      <point x="90" y="500" type="move" name="_top"/>
    </contour>
  </outline>
</glyph>
<glyph name="cedilla" format="1">
  <advance width="380"/>
  <unicode hex="00B8"/>
  <outline>
    <component base="dot" yOffset="-300"/>
    <component base="dot" xOffset="100" yOffset="-200"/>
    <component base="dot" yOffset="-100"/>
    <contour>
      <point x="-10" y="0" type="move" name="_bottom"/>
    </contour>
  </outline>
</glyph>
<glyph name="AE" format="1">
  <advance width="1180"/>
  <unicode hex="00C6"/>
  <outline>
    <component base="dot" xOffset="400" yOffset="600"/>
    <component base="dot" xOffset="500" yOffset="600"/>
    <component base="dot" xOffset="500" yOffset="500"/>
    <component base="dot" xOffset="600" yOffset="300"/>
    <component base="dot" xOffset="700" yOffset="300"/>
    <component base="dot" xOffset="600" yOffset="600"/>
    <component base="dot" xOffset="700" yOffset="600"/>
    <component base="dot" xOffset="800" yOffset="600"/>
    <component base="dot" xOffset="900" yOffset="600"/>
    <component base="dot" xOffset="600"/>
    <component base="dot" xOffset="700"/>
    <component base="dot" xOffset="800"/>
    <component base="dot" xOffset="900"/>
    <component base="dot" xOffset="200" yOffset="600"/>
    <component base="dot" xOffset="100" yOffset="500"/>
    <component base="dot" yOffset="400"/>
    <component base="dot" yOffset="300"/>
    <component base="dot" yOffset="200"/>
    <component base="dot" yOffset="100"/>
    <component base="dot"/>
    <component base="dot" xOffset="300" yOffset="600"/>
    <component base="dot" xOffset="400" yOffset="500"/>
    <component base="dot" xOffset="100" yOffset="400"/>
    <component base="dot" xOffset="100" yOffset="300"/>
    <component base="dot" xOffset="100" yOffset="200"/>
    <component base="dot" xOffset="100" yOffset="100"/>
    <component base="dot" xOffset="100"/>
    <component base="dot" xOffset="400"/>
    <component base="dot" xOffset="500" yOffset="100"/>
    <component base="dot" xOffset="400" yOffset="100"/>
    <component base="dot" xOffset="400" yOffset="400"/>
    <component base="dot" xOffset="400" yOffset="300"/>
    <component base="dot" xOffset="400" yOffset="200"/>
    <component base="dot" xOffset="500" yOffset="400"/>
    <component base="dot" xOffset="500" yOffset="300"/>
    <component base="dot" xOffset="500" yOffset="200"/>
    <component base="dot" xOffset="500"/>
    <component base="dot" xOffset="200" yOffset="300"/>
    <component base="dot" xOffset="300" yOffset="300"/>
    <contour>
      <point x="1000" y="0" type="move" name="ogonek"/>
    </contour>
    <contour>
      <point x="700" y="0" type="move" name="bottom"/>
    </contour>
    <contour>
      <point x="700" y="800" type="move" name="top"/>
    </contour>
  </outline>
</glyph>
<glyph name="ae" format="1">
  <advance width="1180"/>
  <unicode hex="00E6"/>
  <outline>
    <component base="dot" yOffset="100"/>
    <component base="dot" xOffset="100"/>
    <component base="dot" xOffset="200"/>
    <component base="dot" xOffset="300"/>
    <component base="dot" xOffset="100" yOffset="200"/>
    <component base="dot" xOffset="200" yOffset="200"/>
    <component base="dot" xOffset="300" yOffset="200"/>
    <component base="dot" xOffset="400" yOffset="400"/>
    <component base="dot" xOffset="300" yOffset="400"/>
    <component base="dot" xOffset="200" yOffset="400"/>
    <component base="dot" xOffset="100" yOffset="400"/>
    <component base="dot" xOffset="100" yOffset="100"/>
    <component base="dot" xOffset="400" yOffset="100"/>
    <component base="dot" xOffset="400" yOffset="200"/>
    <component base="dot" xOffset="400" yOffset="300"/>
    <component base="dot" xOffset="500" yOffset="100"/>
    <component base="dot" xOffset="500" yOffset="200"/>
    <component base="dot" xOffset="500" yOffset="300"/>
    <component base="dot" xOffset="600"/>
    <component base="dot" xOffset="700"/>
    <component base="dot" xOffset="800"/>
    <component base="dot" xOffset="600" yOffset="400"/>
    <component base="dot" xOffset="700" yOffset="400"/>
    <component base="dot" xOffset="800" yOffset="400"/>
    <component base="dot" xOffset="900" yOffset="300"/>
    <component base="dot" xOffset="900" yOffset="200"/>
    <component base="dot" xOffset="800" yOffset="200"/>
    <component base="dot" xOffset="700" yOffset="200"/>
    <component base="dot" xOffset="600" yOffset="200"/>
    <component base="dot" xOffset="400"/>
    <contour>
      <point x="1000" y="0" type="move" name="ogonek"/>
    </contour>
    <contour>
      <point x="700" y="0" type="move" name="bottom"/>
    </contour>
    <contour>
      <point x="700" y="600" type="move" name="top"/>
    </contour>
  </outline>
</glyph>
<glyph name="oe" format="1">
  <advance width="1180"/>
  <unicode hex="0153"/>
  <outline>
    <component base="o"/>
    <component base="dot" xOffset="400" yOffset="100"/>
    <component base="dot" xOffset="400" yOffset="200"/>
    <component base="dot" xOffset="400" yOffset="300"/>
    <component base="dot" xOffset="500" yOffset="100"/>
    <component base="dot" xOffset="500" yOffset="200"/>
    <component base="dot" xOffset="500" yOffset="300"/>
    <component base="dot" xOffset="600"/>
    <component base="dot" xOffset="700"/>
    <component base="dot" xOffset="800"/>
    <component base="dot" xOffset="600" yOffset="400"/>
    <component base="dot" xOffset="700" yOffset="400"/>
    <component base="dot" xOffset="800" yOffset="400"/>
    <component base="dot" xOffset="900" yOffset="300"/>
    <component base="dot" xOffset="900" yOffset="200"/>
    <component base="dot" xOffset="800" yOffset="200"/>
    <component base="dot" xOffset="700" yOffset="200"/>
    <component base="dot" xOffset="600" yOffset="200"/>
    <contour>
      <point x="990" y="0" type="move" name="ogonek"/>
    </contour>
    <contour>
      <point x="690" y="0" type="move" name="bottom"/>
    </contour>
    <contour>
      <point x="690" y="600" type="move" name="top"/>
    </contour>
  </outline>
</glyph>
<glyph name="circumflex" format="1">
  <advance width="480"/>
  <unicode hex="02C6"/>
  <outline>
    <component base="dot" xOffset="200" yOffset="700"/>
    <component base="dot" xOffset="100" yOffset="800"/>
    <component base="dot" yOffset="700"/>
    <contour>
      <point x="90" y="700" type="move" name="_top"/>
    </contour>
  </outline>
</glyph>
<glyph name="breve" format="1">
  <advance width="580"/>
  <unicode hex="02D8"/>
  <outline>
    <component base="dot" xOffset="100" yOffset="700"/>
    <component base="dot" xOffset="200" yOffset="700"/>
    <component base="dot" xOffset="300" yOffset="800"/>
    <component base="dot" yOffset="800"/>
    <contour>
      <point x="200" y="700" type="move" name="_top"/>
    </contour>
  </outline>
</glyph>
<glyph name="dotaccent" format="1">
  <advance width="380"/>
  <unicode hex="02D9"/>
  <outline>
    <component base="dot" yOffset="800"/>
    <component base="dot" xOffset="100" yOffset="800"/>
    <component base="dot" xOffset="100" yOffset="700"/>
    <component base="dot" yOffset="700"/>
    <contour>
      <point x="90" y="700" type="move" name="_top"/>
    </contour>
  </outline>
</glyph>
<glyph name="ring" format="1">
  <advance width="480"/>
  <unicode hex="02DA"/>
  <outline>
    <component base="dot" yOffset="700"/>
    <component base="dot" xOffset="100" yOffset="800"/>
    <component base="dot" xOffset="200" yOffset="700"/>
    <component base="dot" xOffset="100" yOffset="600"/>
    <contour>
      <point x="100" y="600" type="move" name="_top"/>
    </contour>
  </outline>
</glyph>
<glyph name="ogonek" format="1">
  <advance width="1030"/>
  <unicode hex="02DB"/>
  <outline>
    <contour>
      <point x="170" y="0" type="move" name="_ogonek"/>
    </contour>
  </outline>
</glyph>
<glyph name="tilde" format="1">
  <advance width="580"/>
  <unicode hex="02DC"/>
  <outline>
    <component base="dot" yOffset="600"/>
    <component base="dot" xOffset="100" yOffset="700"/>
    <component base="dot" xOffset="200" yOffset="600"/>
    <component base="dot" xOffset="300" yOffset="700"/>
    <contour>
      <point x="200" y="600" type="move" name="_top"/>
    </contour>
  </outline>
</glyph>
<glyph name="hungarumlaut" format="1">
  <advance width="1030"/>
  <unicode hex="02DD"/>
  <outline>
    <contour>
      <point x="170" y="500" type="move" name="_top"/>
    </contour>
  </outline>
</glyph>
<glyph name="circle" format="1">
  <advance width="280"/>
  <outline>
    <contour>
      <point x="170" y="0"/>
      <point x="190" y="20"/>
      <point x="190" y="50" type="curve" smooth="yes"/>
      <point x="190" y="80"/>
      <point x="170" y="100"/>
      <point x="140" y="100" type="curve" smooth="yes"/>
      <point x="110" y="100"/>
      <point x="90" y="80"/>
      <point x="90" y="50" type="curve" smooth="yes"/>
      <point x="90" y="20"/>
      <point x="110" y="0"/>
      <point x="140" y="0" type="curve" smooth="yes"/>
    </contour>
  </outline>
</glyph>
<glyph name="dot" format="1">
  <advance width="280"/>
  <outline>
    <contour>
      <point x="90" y="0" type="line"/>
      <point x="190" y="0" type="line"/>
      <point x="190" y="100" type="line"/>
      <point x="90" y="100" type="line"/>
    </contour>
  </outline>
</glyph>
<glyph name="dot.para" format="1">
  <advance width="340"/>
  <outline>
    <contour>
      <point x="90" y="0" type="line"/>
      <point x="190" y="0" type="line"/>
      <point x="250" y="100" type="line"/>
      <point x="150" y="100" type="line"/>
    </contour>
  </outline>
</glyph>
<glyph name="dot.small" format="1">
  <advance width="240"/>
  <outline>
    <contour>
      <point x="90" y="20" type="line"/>
      <point x="150" y="20" type="line"/>
      <point x="150" y="80" type="line"/>
      <point x="90" y="80" type="line"/>
    </contour>
  </outline>
</glyph>
